<?xml version="1.0" standalone="no"?>
<!DOCTYPE svg PUBLIC "-//W3C//DTD SVG 20010904//EN"
 "http://www.w3.org/TR/2001/REC-SVG-20010904/DTD/svg10.dtd">
<svg version="1.0" xmlns="http://www.w3.org/2000/svg"
 width="842.000000pt" height="835.000000pt" viewBox="0 0 842.000000 835.000000"
 preserveAspectRatio="xMidYMid meet">
<metadata>
Created by potrace 1.16, written by Peter Selinger 2001-2019
</metadata>
<g transform="translate(0.000000,835.000000) scale(0.100000,-0.100000)"
fill="#000000" stroke="none">
<path d="M0 4175 l0 -4175 4210 0 4210 0 0 4175 0 4175 -4210 0 -4210 0 0
-4175z m2530 3826 c21 -6 26 -14 28 -49 2 -32 0 -42 -12 -42 -8 0 -17 4 -20 9
-11 17 -93 31 -121 21 -33 -12 -30 -41 5 -50 14 -4 45 -13 69 -20 60 -16 91
-49 91 -97 0 -76 -54 -113 -163 -113 -35 0 -78 5 -96 11 -28 10 -31 15 -31 50
0 43 7 46 52 23 39 -20 126 -23 138 -4 15 24 -1 39 -55 50 -138 29 -177 129
-76 197 27 19 47 23 100 22 36 -1 77 -4 91 -8z m788 -5 c72 -37 103 -119 83
-212 -10 -43 -20 -60 -54 -89 -34 -29 -39 -38 -27 -45 8 -5 30 -7 48 -4 31 6
32 5 32 -30 l0 -36 -65 0 c-57 0 -69 3 -90 25 -14 13 -25 31 -25 40 0 8 -9 15
-20 15 -60 0 -125 67 -136 137 -19 125 51 213 169 213 32 0 70 -6 85 -14z
m-1418 -26 l0 -30 -75 0 -75 0 0 -35 0 -35 70 0 70 0 0 -30 0 -30 -70 0 -70 0
0 -70 0 -70 -45 0 -45 0 0 165 0 165 120 0 120 0 0 -30z m302 -130 c31 -85 57
-158 57 -162 1 -5 -21 -8 -48 -8 -46 0 -49 2 -57 33 -9 31 -12 32 -65 35 -54
3 -55 3 -67 -33 -13 -33 -16 -35 -58 -35 -24 0 -44 3 -44 8 0 4 26 78 57 165
l58 158 55 -3 55 -3 57 -155z m688 130 c0 -30 -1 -30 -55 -30 l-55 0 0 -135 0
-135 -45 0 -45 0 0 135 0 135 -50 0 c-49 0 -50 1 -50 30 l0 30 150 0 150 0 0
-30z m660 -90 c0 -108 2 -122 21 -141 21 -21 61 -20 84 2 6 6 12 66 14 134 l3
125 44 0 44 0 0 -121 c0 -179 -28 -219 -155 -219 -120 0 -145 36 -145 215 l0
125 45 0 45 0 0 -120z m460 90 c0 -25 -4 -30 -25 -30 l-25 0 0 -105 0 -105 25
0 c21 0 25 -5 25 -30 l0 -30 -100 0 -100 0 0 30 c0 27 3 30 30 30 l30 0 0 105
0 105 -30 0 c-27 0 -30 3 -30 30 l0 30 100 0 100 0 0 -30z m310 -4 c0 -29 -15
-54 -80 -135 l-80 -101 85 0 85 0 0 -30 0 -30 -140 0 -140 0 0 31 c0 24 19 55
81 133 l81 101 -76 3 -76 3 0 29 0 30 130 0 130 0 0 -34z m2906 -603 c33 -11
67 -34 105 -72 99 -99 89 249 89 -3131 0 -3380 10 -3032 -89 -3131 -99 -99
207 -89 -2811 -89 -3018 0 -2712 -10 -2811 89 -99 99 -89 -249 -89 3131 0
3380 -10 3031 89 3131 97 97 -205 87 2807 88 2464 1 2664 0 2710 -16z m-3769
-6895 c31 -29 32 -92 1 -125 -51 -54 -148 -14 -148 62 0 75 92 114 147 63z
m2002 -4 c12 -15 21 -37 21 -49 0 -12 -9 -34 -21 -49 -18 -22 -28 -26 -75 -26
l-54 0 0 75 0 75 54 0 c47 0 57 -4 75 -26z m-411 -27 c6 -5 12 -29 12 -53 0
-40 -2 -44 -25 -44 -23 0 -25 4 -25 46 0 59 -24 55 -28 -4 -3 -33 -7 -42 -22
-42 -15 0 -19 9 -22 43 -2 23 -7 42 -13 42 -5 0 -11 -19 -13 -42 -3 -35 -7
-43 -23 -43 -16 0 -19 7 -19 55 l0 55 83 -1 c45 -1 88 -6 95 -12z m702 -117
c0 -7 -182 -10 -525 -10 -343 0 -525 3 -525 10 0 7 182 10 525 10 343 0 525
-3 525 -10z"/>
<path d="M3189 7921 c-25 -26 -29 -37 -29 -86 0 -49 4 -60 29 -86 16 -16 37
-29 46 -29 9 0 30 13 46 29 25 26 29 37 29 86 0 49 -4 60 -29 86 -16 16 -37
29 -46 29 -9 0 -30 -13 -46 -29z"/>
<path d="M2390 6285 l0 -115 25 0 c24 0 25 3 25 60 0 57 1 60 24 60 28 0 36
-16 36 -76 0 -40 2 -44 25 -44 24 0 25 3 25 58 0 87 -34 122 -91 92 -17 -10
-19 -7 -19 35 0 41 -2 45 -25 45 l-25 0 0 -115z"/>
<path d="M2880 6285 l0 -115 25 0 c22 0 24 4 27 58 3 53 5 57 28 57 23 0 25
-4 28 -57 3 -54 5 -58 27 -58 24 0 25 3 25 64 0 87 -32 117 -91 86 -17 -10
-19 -7 -19 35 0 41 -2 45 -25 45 l-25 0 0 -115z"/>
<path d="M2050 6323 c10 -38 23 -87 30 -110 9 -38 14 -43 40 -43 26 0 30 5 44
54 9 30 16 59 16 65 0 6 5 11 10 11 6 0 10 -5 10 -11 0 -6 7 -35 16 -65 14
-49 18 -54 44 -54 19 0 31 6 34 18 3 9 16 59 30 110 l25 92 -28 0 c-27 0 -29
-4 -41 -62 -7 -35 -16 -67 -20 -71 -4 -5 -15 23 -25 62 -16 66 -19 71 -44 71
-25 0 -28 -5 -46 -71 -20 -78 -26 -76 -45 14 -11 53 -13 57 -40 57 l-29 0 19
-67z"/>
<path d="M3359 6301 c-32 -32 -35 -47 -17 -86 14 -31 71 -50 122 -41 30 6 36
11 36 32 0 21 -3 23 -19 14 -29 -15 -77 -12 -91 5 -11 13 -5 15 49 15 61 0 61
0 61 29 0 63 -89 83 -141 32z"/>
<path d="M3756 6309 c-58 -46 -19 -139 59 -139 50 0 85 33 85 80 0 47 -35 80
-85 80 -18 0 -44 -9 -59 -21z"/>
<path d="M4050 6260 c0 -66 2 -71 26 -82 19 -9 33 -9 55 -1 16 6 29 7 29 2 0
-5 11 -9 25 -9 25 0 25 1 25 80 0 78 -1 80 -25 80 -22 0 -24 -4 -27 -57 -3
-54 -5 -58 -28 -58 -23 0 -25 4 -28 58 -3 53 -5 57 -27 57 -24 0 -25 -2 -25
-70z"/>
<path d="M4515 6305 c-70 -69 16 -166 109 -124 32 15 48 59 35 98 -19 53 -102
69 -144 26z"/>
<path d="M4710 6250 c0 -79 0 -80 25 -80 24 0 25 3 25 60 0 57 1 60 24 60 28
0 36 -16 36 -76 0 -40 2 -44 25 -44 24 0 25 3 25 58 0 87 -34 122 -91 92 -13
-7 -19 -7 -19 0 0 5 -11 10 -25 10 -25 0 -25 -1 -25 -80z"/>
<path d="M4933 6323 c-7 -2 -13 -13 -13 -23 0 -15 7 -17 44 -13 56 7 69 -12
14 -21 -51 -8 -68 -21 -68 -52 0 -38 69 -61 98 -32 9 9 12 9 12 0 0 -7 11 -12
25 -12 24 0 25 2 25 64 0 56 -3 67 -22 80 -21 15 -88 20 -115 9z"/>
<path d="M5271 6278 c41 -101 42 -108 30 -134 -15 -34 -15 -36 16 -32 24 3 32
14 70 103 23 55 42 103 43 108 0 4 -11 7 -24 7 -19 0 -27 -10 -44 -52 -17 -44
-21 -50 -27 -33 -30 79 -34 85 -59 85 l-26 0 21 -52z"/>
<path d="M5873 6319 c-12 -6 -27 -24 -34 -40 -25 -62 32 -119 106 -105 59 11
85 79 47 126 -20 25 -86 35 -119 19z"/>
<path d="M6050 6250 c0 -78 1 -80 25 -80 22 0 24 4 27 58 3 54 4 57 31 60 27
3 27 3 27 -57 0 -58 1 -61 25 -61 24 0 25 2 25 70 0 65 -2 71 -25 82 -19 8
-32 8 -52 -1 -19 -9 -29 -9 -31 -2 -2 6 -15 11 -28 11 -23 0 -24 -2 -24 -80z"/>
<path d="M6350 6328 c0 -2 11 -37 24 -78 22 -69 26 -75 52 -75 24 0 29 6 44
50 l18 50 11 -28 c6 -15 14 -39 17 -52 5 -19 13 -25 34 -25 25 0 29 5 49 73
26 89 26 87 -3 87 -20 0 -25 -6 -31 -38 -11 -66 -22 -71 -38 -16 -12 40 -18
49 -37 49 -19 0 -27 -9 -40 -50 -18 -52 -22 -50 -38 15 -6 28 -14 36 -35 38
-15 2 -27 2 -27 0z"/>
<path d="M6678 6323 c-10 -2 -18 -13 -18 -23 0 -15 6 -17 44 -13 54 7 70 -12
19 -22 -52 -9 -73 -22 -73 -45 0 -41 68 -68 98 -38 9 9 12 9 12 0 0 -7 11 -12
25 -12 24 0 25 2 25 64 0 56 -3 67 -22 80 -21 15 -72 19 -110 9z"/>
<path d="M6883 6320 c-26 -11 -39 -46 -23 -65 7 -8 27 -17 46 -21 19 -3 37
-10 40 -15 7 -12 -53 -11 -77 1 -16 9 -19 7 -19 -14 0 -21 6 -26 35 -32 63
-11 115 11 115 51 0 23 -34 45 -70 45 -10 0 -22 5 -26 11 -4 8 8 10 40 8 38
-3 46 -1 46 12 0 28 -59 38 -107 19z"/>
<path d="M2050 5925 l0 -115 25 0 c21 0 25 5 25 28 0 43 11 45 37 7 16 -24 31
-35 48 -35 31 0 31 1 -1 50 l-27 40 27 35 27 35 -27 0 c-19 0 -37 -11 -55 -32
l-28 -33 -1 68 c0 65 -1 67 -25 67 l-25 0 0 -115z"/>
<path d="M2860 6000 c0 -38 -2 -40 -24 -34 -37 9 -64 -4 -82 -37 -19 -38 -10
-85 19 -103 12 -8 48 -14 80 -14 l57 0 0 114 0 114 -25 0 c-23 0 -25 -4 -25
-40z"/>
<path d="M3940 5925 l0 -115 25 0 c22 0 24 4 27 58 3 53 5 57 28 57 23 0 25
-4 28 -57 3 -54 5 -58 27 -58 24 0 25 3 25 64 0 87 -32 117 -91 86 -17 -10
-19 -7 -19 35 0 41 -2 45 -25 45 l-25 0 0 -115z"/>
<path d="M5030 5926 l0 -114 61 -1 c51 0 65 4 85 24 25 26 30 58 14 99 -11 30
-51 43 -86 27 -23 -10 -24 -10 -24 34 0 41 -2 45 -25 45 l-25 0 0 -114z"/>
<path d="M3623 6020 c-45 -18 -57 -86 -22 -121 17 -17 30 -20 59 -16 30 4 37
2 33 -9 -6 -17 -46 -28 -73 -21 -16 4 -20 0 -20 -19 0 -20 5 -24 33 -24 54 0
100 30 115 74 32 98 -36 172 -125 136z"/>
<path d="M4298 6015 c-37 -20 -48 -44 -48 -100 0 -73 56 -116 133 -101 53 10
82 48 82 107 0 39 -5 54 -26 75 -33 33 -101 42 -141 19z"/>
<path d="M5750 6015 c-7 -8 -21 -15 -31 -15 -12 0 -19 -7 -19 -20 0 -15 7 -20
25 -20 24 0 25 -3 25 -55 0 -52 -1 -55 -25 -55 -18 0 -25 -5 -25 -20 0 -18 7
-20 75 -20 68 0 75 2 75 20 0 15 -7 20 -25 20 -25 0 -25 1 -25 90 0 81 -2 90
-19 90 -10 0 -24 -7 -31 -15z"/>
<path d="M5928 6010 c-22 -17 -28 -30 -28 -60 0 -49 33 -76 80 -66 17 3 30 2
30 -3 0 -19 -32 -33 -65 -29 -32 4 -36 2 -33 -16 3 -18 10 -21 52 -20 42 0 53
5 77 32 24 26 29 42 29 81 0 62 -22 90 -75 98 -31 4 -46 0 -67 -17z"/>
<path d="M6164 6011 c-60 -37 -70 -139 -17 -181 45 -35 112 -20 133 31 23 54
-22 107 -80 95 -17 -3 -30 -1 -30 4 0 16 41 32 71 28 25 -4 29 -1 29 19 0 20
-5 23 -37 23 -21 0 -52 -9 -69 -19z"/>
<path d="M6330 6010 c0 -18 7 -20 56 -20 56 0 56 0 42 -22 -8 -13 -32 -53 -52
-90 l-38 -68 30 0 c28 0 35 7 81 94 28 51 51 101 51 110 0 13 -13 16 -85 16
-78 0 -85 -2 -85 -20z"/>
<path d="M2576 5949 c-20 -16 -26 -29 -26 -58 0 -60 51 -91 125 -77 29 6 35
11 35 32 0 22 -2 23 -20 14 -26 -14 -82 -9 -88 8 -3 9 13 12 58 12 l62 0 -6
28 c-15 60 -88 82 -140 41z"/>
<path d="M3086 5949 c-58 -46 -19 -139 59 -139 50 0 85 33 85 80 0 47 -35 80
-85 80 -18 0 -44 -9 -59 -21z"/>
<path d="M3280 5890 c0 -79 0 -80 25 -80 24 0 25 3 25 60 0 57 1 60 24 60 28
0 36 -16 36 -76 0 -40 2 -44 25 -44 24 0 25 3 25 58 0 87 -34 122 -91 92 -13
-7 -19 -7 -19 0 0 5 -11 10 -25 10 -25 0 -25 -1 -25 -80z"/>
<path d="M4853 5959 c-12 -6 -27 -24 -34 -40 -25 -62 32 -119 106 -105 59 11
85 79 47 126 -20 25 -86 35 -119 19z"/>
<path d="M5273 5960 c-43 -18 -57 -81 -25 -120 12 -15 33 -24 63 -27 54 -6 89
9 89 38 0 16 -3 18 -19 9 -33 -17 -101 -10 -101 11 0 5 27 9 60 9 54 0 60 2
60 20 0 51 -69 83 -127 60z"/>
<path d="M3356 459 c-36 -28 -36 -80 0 -108 15 -12 32 -21 39 -21 7 0 24 9 39
21 36 28 36 80 0 108 -15 12 -32 21 -39 21 -7 0 -24 -9 -39 -21z"/>
</g>
</svg>
