<?xml version="1.0" standalone="no"?>
<!DOCTYPE svg PUBLIC "-//W3C//DTD SVG 20010904//EN"
 "http://www.w3.org/TR/2001/REC-SVG-20010904/DTD/svg10.dtd">
<svg version="1.0" xmlns="http://www.w3.org/2000/svg"
 width="501.000000pt" height="808.000000pt" viewBox="0 0 501.000000 808.000000"
 preserveAspectRatio="xMidYMid meet">
<metadata>
Created by potrace 1.16, written by Peter Selinger 2001-2019
</metadata>
<g transform="translate(0.000000,808.000000) scale(0.100000,-0.100000)"
fill="#000000" stroke="none">
<path d="M513 6320 c-26 -13 -47 -34 -57 -55 -26 -54 -22 -65 24 -65 32 0 40
4 40 18 0 54 96 71 114 21 15 -44 0 -73 -94 -172 -74 -78 -90 -101 -90 -126
l0 -31 140 0 140 0 0 35 0 34 -86 3 -85 3 67 74 c90 101 111 154 82 215 -27
60 -123 82 -195 46z"/>
<path d="M860 6322 c-24 -11 -43 -32 -58 -64 -32 -63 -23 -119 24 -166 30 -30
39 -34 77 -30 23 3 50 8 60 12 13 6 17 3 17 -12 0 -30 -48 -71 -91 -78 -36 -6
-39 -9 -39 -40 0 -38 9 -41 73 -23 89 25 141 111 141 234 0 82 -20 126 -74
162 -40 27 -83 29 -130 5z m97 -60 c15 -9 33 -56 33 -84 0 -44 -60 -75 -96
-50 -34 22 -41 94 -13 129 12 14 57 17 76 5z"/>
<path d="M1158 6310 c-25 -26 -29 -36 -24 -63 15 -80 118 -92 145 -17 12 37 1
72 -31 94 -33 23 -56 20 -90 -14z"/>
<path d="M1454 6321 c-90 -41 -128 -167 -89 -298 33 -110 147 -153 258 -96 32
16 67 68 67 101 0 19 -5 22 -40 22 -29 0 -40 -4 -40 -15 0 -9 -11 -27 -25 -40
-30 -31 -83 -33 -116 -6 -22 17 -24 29 -27 114 -5 117 9 153 64 163 46 9 83
-9 97 -46 10 -26 16 -30 50 -30 39 0 39 1 33 31 -9 47 -41 85 -86 103 -52 21
-95 20 -146 -3z"/>
<path d="M4226 3401 c-88 -58 -88 -190 0 -247 35 -24 111 -23 150 0 93 55 90
202 -6 251 -40 21 -109 19 -144 -4z"/>
<path d="M4226 2041 c-88 -58 -88 -190 0 -247 35 -24 111 -23 150 0 93 55 90
202 -6 251 -40 21 -109 19 -144 -4z"/>
</g>
</svg>
